<svg xmlns="http://www.w3.org/2000/svg" width="1200" height="680" viewBox="0 0 1200 680">
  <rect width="1200" height="680" fill="#ffffff"/>
  <text x="60" y="60" font-family="Arial" font-size="30" font-weight="bold">Voynich OS v12.4 Showcase Evidence Atlas</text>
  <text x="60" y="98" font-family="Arial" font-size="17">Artifact observability package built from the v12.3 output manifest.</text>

  <rect x="60" y="120" width="1080" height="430" rx="18" fill="#f7f7f7" stroke="#222"/>
  <text x="80" y="145" font-family="Arial" font-size="18" font-weight="bold">Top manifested artifact families by file count</text>
  <text x="80" y="168" font-family="Arial" font-size="14">meaning json</text><rect x="330" y="150" width="500" height="24" fill="#d9d9d9" stroke="#222"/><text x="840" y="168" font-family="Arial" font-size="13">546 files</text><text x="80" y="210" font-family="Arial" font-size="14">corpus txt</text><rect x="330" y="192" width="209" height="24" fill="#d9d9d9" stroke="#222"/><text x="549" y="210" font-family="Arial" font-size="13">229 files</text><text x="80" y="252" font-family="Arial" font-size="14">folio outputs json</text><rect x="330" y="234" width="206" height="24" fill="#d9d9d9" stroke="#222"/><text x="546" y="252" font-family="Arial" font-size="13">226 files</text><text x="80" y="294" font-family="Arial" font-size="14">docs md</text><rect x="330" y="276" width="6" height="24" fill="#d9d9d9" stroke="#222"/><text x="346" y="294" font-family="Arial" font-size="13">7 files</text><text x="80" y="336" font-family="Arial" font-size="14">manuscript state json</text><rect x="330" y="318" width="1" height="24" fill="#d9d9d9" stroke="#222"/><text x="341" y="336" font-family="Arial" font-size="13">2 files</text><text x="80" y="378" font-family="Arial" font-size="14">ledger jsonl</text><rect x="330" y="360" width="1" height="24" fill="#d9d9d9" stroke="#222"/><text x="341" y="378" font-family="Arial" font-size="13">2 files</text><text x="80" y="420" font-family="Arial" font-size="14">state audits</text><rect x="330" y="402" width="1" height="24" fill="#d9d9d9" stroke="#222"/><text x="341" y="420" font-family="Arial" font-size="13">2 files</text><text x="80" y="462" font-family="Arial" font-size="14">rcc reports</text><rect x="330" y="444" width="1" height="24" fill="#d9d9d9" stroke="#222"/><text x="341" y="462" font-family="Arial" font-size="13">2 files</text>

  <rect x="60" y="585" width="330" height="55" rx="12" fill="#f2f2f2" stroke="#222"/>
  <text x="80" y="617" font-family="Arial" font-size="18">Families: 10</text>

  <rect x="430" y="585" width="330" height="55" rx="12" fill="#f2f2f2" stroke="#222"/>
  <text x="450" y="617" font-family="Arial" font-size="18">Files: 1019</text>

  <rect x="800" y="585" width="340" height="55" rx="12" fill="#f2f2f2" stroke="#222"/>
  <text x="820" y="617" font-family="Arial" font-size="18">Bytes: 38670707</text>

  <text x="60" y="665" font-family="Arial" font-size="14">Non-claim lock: artifact observability is not decipherment, translation, semantic proof, or literal OS proof.</text>
</svg>
