<svg xmlns="http://www.w3.org/2000/svg" width="1200" height="520" viewBox="0 0 1200 520">
  <rect width="1200" height="520" fill="#ffffff"/>
  <text x="60" y="60" font-family="Arial" font-size="30" font-weight="bold">Voynich OS v12.3 Output Manifest Layer</text>
  <text x="60" y="100" font-family="Arial" font-size="18">corpus -> outputs -> diagnostics -> state -> ledgers -> audits -> RCC -> manifest -> alias plan</text>
  <g font-family="Arial" font-size="16">
    <rect x="60" y="150" width="120" height="70" rx="12" fill="#f2f2f2" stroke="#222"/>
    <text x="90" y="192">Corpus</text>
    <rect x="200" y="150" width="120" height="70" rx="12" fill="#f2f2f2" stroke="#222"/>
    <text x="230" y="192">Folios</text>
    <rect x="340" y="150" width="140" height="70" rx="12" fill="#f2f2f2" stroke="#222"/>
    <text x="365" y="192">Diagnostics</text>
    <rect x="500" y="150" width="120" height="70" rx="12" fill="#f2f2f2" stroke="#222"/>
    <text x="535" y="192">State</text>
    <rect x="640" y="150" width="120" height="70" rx="12" fill="#f2f2f2" stroke="#222"/>
    <text x="675" y="192">Ledger</text>
    <rect x="780" y="150" width="120" height="70" rx="12" fill="#f2f2f2" stroke="#222"/>
    <text x="815" y="192">Audit</text>
    <rect x="920" y="150" width="120" height="70" rx="12" fill="#f2f2f2" stroke="#222"/>
    <text x="955" y="192">RCC</text>
    <rect x="500" y="300" width="200" height="80" rx="14" fill="#e8e8e8" stroke="#222"/>
    <text x="535" y="345">Output Manifest</text>
    <text x="545" y="368">counts + hashes</text>
    <rect x="740" y="300" width="180" height="80" rx="14" fill="#e8e8e8" stroke="#222"/>
    <text x="775" y="345">Alias Plan</text>
    <text x="760" y="368">no move before manifest</text>
  </g>
  <g stroke="#222" stroke-width="2">
    <line x1="180" y1="185" x2="200" y2="185"/>
    <line x1="320" y1="185" x2="340" y2="185"/>
    <line x1="480" y1="185" x2="500" y2="185"/>
    <line x1="620" y1="185" x2="640" y2="185"/>
    <line x1="760" y1="185" x2="780" y2="185"/>
    <line x1="900" y1="185" x2="920" y2="185"/>
    <line x1="980" y1="220" x2="620" y2="300"/>
    <line x1="700" y1="340" x2="740" y2="340"/>
  </g>
  <text x="60" y="455" font-family="Arial" font-size="16">Non-claim lock: artifact observability is not decipherment, translation, or semantic proof.</text>
</svg>
